<?xml version="1.0" encoding="UTF-8"?>
<svg id="Layer_1" data-name="Layer 1" xmlns="http://www.w3.org/2000/svg" viewBox="0 0 172.35 165.64">
  <defs>
    <style>
      .cls-1 {
        fill: #6067af;
        stroke-width: 0px;
      }
    </style>
  </defs>
  <path class="cls-1" d="M170.34,98.5c-1.34-3.61-3.49-6.7-7.27-8.1-1.3-.48-1.75-1.19-2.03-2.39-1.98-8.64-6.13-16.09-12.46-22.31-8.98-8.82-19.81-13.2-32.37-13.37-2.85-.04-5.7-.02-8.54,0-.88,0-1.49-.22-1.86-1.13-1.76-4.31-5.06-6.22-9.65-6.08-1.45.04-2.9.01-4.35,0-1.97,0-2.05-.08-2.05-2.01,0-5.79.03-11.59-.03-17.38-.01-1.34.44-2.01,1.66-2.6,4.52-2.17,6.88-5.95,6.96-10.87.12-7.8-7.01-13.57-14.66-11.98-5.61,1.16-9.69,5.67-9.7,11.9,0,5.03,2.47,8.86,7.13,11.07.81.38,1.48.71,1.47,1.79-.03,6.24-.02,12.49,0,18.73,0,.95-.41,1.36-1.35,1.36-1.9-.02-3.8,0-5.7,0-4.3.03-7.31,2.03-8.97,5.98-.37.88-.87,1.24-1.8,1.23-2.6-.03-5.2,0-7.79,0-5.79,0-11.42.85-16.87,2.89-8.11,3.04-14.84,7.98-20.19,14.74-4.36,5.52-7.3,11.77-8.82,18.68-.12.56-.68,1.28-1.19,1.45-3.12,1.07-5.31,3.19-6.77,6.02-3.89,7.59-4.04,15.47-1.18,23.38,1.42,3.93,3.73,7.29,8.12,8.6.49.15.96.99,1.1,1.59,2.31,9.95,7.19,18.36,15,24.97,8.46,7.16,18.21,10.99,29.37,10.99,10.19,0,20.38,0,30.57,0h0c10.84,0,21.68.01,32.52-.03,1.64,0,3.3-.14,4.91-.43,13.29-2.41,23.82-9.08,31.3-20.42,3.01-4.56,4.96-9.56,6.2-14.85.21-.91.45-1.71,1.52-2,3.54-.95,5.61-3.6,7.04-6.69,3.45-7.44,3.56-15.07.72-22.72ZM146.72,115.84c-.14,12.91-10.9,23.57-23.83,23.61-12.29.04-24.58,0-36.87,0-11.99,0-23.98,0-35.97,0-13.78,0-24.39-10.58-24.44-24.36-.02-4.65-.05-9.29.02-13.94.17-11.9,10-22.31,21.88-23.19,1.39-.1,2.79-.16,4.19-.16,23.43,0,46.86,0,70.29,0,7.21,0,13.39,2.49,18.32,7.78,4.14,4.45,6.31,9.78,6.4,15.87.08,4.79.06,9.59,0,14.39Z"/>
  <path class="cls-1" d="M52.33,120.47c6.54,0,11.86-5.3,11.81-11.78-.05-6.54-5.3-11.84-11.78-11.89-6.46-.05-11.86,5.32-11.86,11.79,0,6.7,5.16,11.88,11.83,11.89Z"/>
  <path class="cls-1" d="M120.05,120.47c6.66-.01,11.87-5.26,11.81-11.91-.06-6.51-5.44-11.84-11.89-11.76-6.49.08-11.75,5.41-11.76,11.92-.01,6.5,5.29,11.77,11.84,11.76Z"/>
</svg>