<?xml version="1.0" encoding="UTF-8"?>
<svg id="Layer_1" data-name="Layer 1" xmlns="http://www.w3.org/2000/svg" viewBox="0 0 336.78 116.58">
  <defs>
    <style>
      .cls-1 {
        fill: #f8fbfd;
      }

      .cls-1, .cls-2 {
        stroke-width: 0px;
      }

      .cls-2 {
        fill: #6067af;
      }
    </style>
  </defs>
  <path class="cls-2" d="M119.9,69.33c-.95-2.54-2.46-4.72-5.12-5.7-.91-.34-1.23-.84-1.43-1.68-1.4-6.08-4.31-11.33-8.77-15.7-6.32-6.21-13.95-9.29-22.78-9.41-2-.03-4.01-.01-6.01,0-.62,0-1.05-.15-1.31-.8-1.24-3.03-3.56-4.38-6.79-4.28-1.02.03-2.04,0-3.06,0-1.38,0-1.44-.06-1.44-1.41,0-4.08.02-8.16-.02-12.24-.01-.94.31-1.42,1.17-1.83,3.18-1.53,4.85-4.19,4.9-7.65.09-5.49-4.93-9.55-10.32-8.44-3.95.82-6.82,3.99-6.82,8.37,0,3.54,1.74,6.24,5.02,7.79.57.27,1.04.5,1.04,1.26-.02,4.4-.01,8.79,0,13.19,0,.67-.29.96-.95.95-1.34-.01-2.67,0-4.01,0-3.02.02-5.15,1.43-6.32,4.21-.26.62-.61.87-1.26.86-1.83-.02-3.66,0-5.49,0-4.08,0-8.04.6-11.88,2.04-5.71,2.14-10.45,5.62-14.21,10.37-3.07,3.89-5.14,8.28-6.21,13.15-.09.39-.48.9-.84,1.02-2.2.75-3.74,2.25-4.76,4.24-2.74,5.34-2.84,10.89-.83,16.45,1,2.77,2.62,5.13,5.72,6.06.34.1.67.7.77,1.12,1.63,7,5.06,12.92,10.55,17.57,5.95,5.04,12.82,7.73,20.67,7.74,7.17,0,14.35,0,21.52,0h0c7.63,0,15.26,0,22.89-.02,1.15,0,2.32-.1,3.46-.31,9.35-1.7,16.76-6.39,22.03-14.37,2.12-3.21,3.49-6.73,4.37-10.45.15-.64.31-1.21,1.07-1.41,2.49-.67,3.95-2.53,4.96-4.71,2.43-5.23,2.51-10.61.51-15.99ZM103.27,81.53c-.1,9.09-7.67,16.59-16.77,16.62-8.65.02-17.3,0-25.95,0-8.44,0-16.88,0-25.32,0-9.7,0-17.17-7.45-17.21-17.15-.01-3.27-.03-6.54.01-9.81.12-8.38,7.04-15.71,15.4-16.32.98-.07,1.97-.11,2.95-.11,16.49,0,32.98,0,49.47,0,5.07,0,9.42,1.75,12.89,5.48,2.92,3.13,4.44,6.88,4.51,11.17.06,3.37.04,6.75,0,10.13Z"/>
  <path class="cls-2" d="M36.83,84.79c4.61,0,8.35-3.73,8.31-8.29-.03-4.6-3.73-8.33-8.29-8.37-4.54-.04-8.35,3.74-8.35,8.3,0,4.71,3.63,8.36,8.33,8.37Z"/>
  <path class="cls-2" d="M84.49,84.79c4.69,0,8.35-3.71,8.31-8.39-.04-4.58-3.83-8.33-8.37-8.28-4.57.05-8.27,3.81-8.28,8.39,0,4.58,3.73,8.28,8.33,8.28Z"/>
  <g>
    <path class="cls-1" d="M140.77,78.2c0-13.4,8.86-21.17,19.06-21.17,5.22,0,9.43,2.46,12.15,5.24l-4.81,5.86c-2.03-1.89-4.21-3.21-7.13-3.21-5.54,0-9.91,4.88-9.91,12.98s3.86,13.13,9.77,13.13c3.32,0,5.93-1.63,7.9-3.78l4.81,5.73c-3.35,3.9-7.81,5.93-13.04,5.93-10.24,0-18.79-7.1-18.79-20.7Z"/>
    <path class="cls-1" d="M177.99,88.61v-33.86h9.11v34.23c0,1.95.9,2.57,1.65,2.57.35,0,.6,0,1.12-.12l1.09,6.72c-1.01.43-2.5.76-4.57.76-6.25,0-8.39-4.08-8.39-10.3Z"/>
    <path class="cls-1" d="M195,58.16c0-2.79,2.22-4.76,5.27-4.76s5.27,1.97,5.27,4.76-2.22,4.76-5.27,4.76-5.27-1.99-5.27-4.76ZM195.71,67.42h9.11v30.74h-9.11v-30.74Z"/>
    <path class="cls-1" d="M212.81,67.42h7.43l.66,3.03h.23c2.41-2.15,5.55-3.77,8.75-3.77,7.44,0,12,6.15,12,15.63,0,10.55-6.28,16.6-12.93,16.6-2.65,0-5.13-1.16-7.33-3.21l.31,4.86v9.01h-9.11v-42.15ZM232.54,82.41c0-5.52-1.71-8.28-5.34-8.28-1.87,0-3.48.84-5.28,2.75v12.62c1.65,1.44,3.37,1.95,4.9,1.95,3.18,0,5.72-2.68,5.72-9.04Z"/>
    <path class="cls-1" d="M248.58,57.78h13.82c8.38,0,14.89,2.3,14.89,10.02,0,3.62-2.03,7.48-5.32,8.72v.25c4.12,1.07,7.31,4.11,7.31,9.51,0,8.22-6.95,11.9-15.73,11.9h-14.98v-40.39ZM261.98,73.95c4.43,0,6.39-1.87,6.39-4.81,0-3.11-2.07-4.32-6.33-4.32h-4.34v9.13h4.27ZM262.81,91.12c4.98,0,7.55-1.77,7.55-5.44s-2.53-4.98-7.55-4.98h-5.1v10.43h5.1Z"/>
    <path class="cls-1" d="M283.53,82.8c0-10.22,7.2-16.13,14.97-16.13s14.98,5.91,14.98,16.13-7.2,16.1-14.98,16.1-14.97-5.9-14.97-16.1ZM304.14,82.8c0-5.32-1.87-8.78-5.64-8.78s-5.64,3.46-5.64,8.78,1.87,8.75,5.64,8.75,5.64-3.43,5.64-8.75Z"/>
    <path class="cls-1" d="M319.33,86.99v-12.42h-4.2v-6.8l4.71-.35,1.06-8.16h7.53v8.16h7.37v7.15h-7.37v12.31c0,3.48,1.58,4.88,3.98,4.88,1.01,0,2.11-.29,2.92-.58l1.44,6.61c-1.63.52-3.85,1.12-6.83,1.12-7.6,0-10.62-4.8-10.62-11.92Z"/>
  </g>
</svg>