<?xml version="1.0" encoding="UTF-8"?>
<svg id="Layer_1" data-name="Layer 1" xmlns="http://www.w3.org/2000/svg" viewBox="0 0 250 250">
  <defs>
    <style>
      .cls-1 {
        fill: #a9b2da;
      }

      .cls-1, .cls-2 {
        stroke-width: 0px;
      }

      .cls-2 {
        fill: #5459a7;
      }
    </style>
  </defs>
  <rect class="cls-1" width="250" height="250" rx="20.1" ry="20.1"/>
  <g>
    <path class="cls-2" d="M66.74,148.06l10.79-8.03c2.6,4.83,6.2,7.02,9.78,7.02,5.68,0,8.74-2.9,8.74-12.27v-45.54h15.88v46.86c0,13.51-7.01,24.66-22.53,24.66-10.74,0-17.8-4.2-22.67-12.7Z"/>
    <path class="cls-2" d="M128.14,89.24h19.85c21.45,0,35.27,10.67,35.27,34.81s-13.82,35.42-34.38,35.42h-20.74v-70.23ZM147.03,146.68c11.91,0,19.96-5.84,19.96-22.64s-8.05-22.03-19.96-22.03h-3.01v44.66h3.01Z"/>
  </g>
</svg>